<svg width="20" height="20" viewBox="0 0 20 20" fill="none" xmlns="http://www.w3.org/2000/svg">
<g transform="translate(-60, -22)">
<g id="Type=microphone">
<g id="Group">
<path id="Vector_2" d="M65.275 30.425C65.4142 30.425 65.5478 30.4804 65.6462 30.5788C65.7447 30.6773 65.8 30.8108 65.8 30.95V32C65.8 33.114 66.2425 34.1822 67.0302 34.9699C67.8178 35.7576 68.8861 36.2 70 36.2C71.1139 36.2 72.1822 35.7576 72.9698 34.9699C73.7575 34.1822 74.2 33.114 74.2 32V30.95C74.2 30.8108 74.2553 30.6773 74.3538 30.5788C74.4522 30.4804 74.5858 30.425 74.725 30.425C74.8642 30.425 74.9978 30.4804 75.0962 30.5788C75.1947 30.6773 75.25 30.8108 75.25 30.95V32C75.25 33.3016 74.7666 34.5567 73.8935 35.5219C73.0205 36.4871 71.82 37.0936 70.525 37.2238V39.35H73.675C73.8142 39.35 73.9478 39.4054 74.0462 39.5038C74.1447 39.6023 74.2 39.7358 74.2 39.875C74.2 40.0143 74.1447 40.1478 74.0462 40.2463C73.9478 40.3447 73.8142 40.4 73.675 40.4H66.325C66.1858 40.4 66.0522 40.3447 65.9538 40.2463C65.8553 40.1478 65.8 40.0143 65.8 39.875C65.8 39.7358 65.8553 39.6023 65.9538 39.5038C66.0522 39.4054 66.1858 39.35 66.325 39.35H69.475V37.2238C68.18 37.0936 66.9795 36.4871 66.1065 35.5219C65.2334 34.5567 64.75 33.3016 64.75 32V30.95C64.75 30.8108 64.8053 30.6773 64.9038 30.5788C65.0022 30.4804 65.1358 30.425 65.275 30.425Z" fill="#1D1F1B" style="fill:#1D1F1B;fill:color(display-p3 0.1148 0.1200 0.1044);fill-opacity:1;"/>
<path id="Vector_3" d="M72.1 32.0001C72.1 32.5571 71.8787 33.0912 71.4849 33.485C71.0911 33.8788 70.5569 34.1001 70 34.1001C69.443 34.1001 68.9089 33.8788 68.5151 33.485C68.1212 33.0912 67.9 32.5571 67.9 32.0001V26.7501C67.9 26.1931 68.1212 25.659 68.5151 25.2652C68.9089 24.8713 69.443 24.6501 70 24.6501C70.5569 24.6501 71.0911 24.8713 71.4849 25.2652C71.8787 25.659 72.1 26.1931 72.1 26.7501V32.0001ZM70 23.6001C69.1645 23.6001 68.3633 23.932 67.7726 24.5227C67.1818 25.1135 66.85 25.9147 66.85 26.7501V32.0001C66.85 32.8355 67.1818 33.6367 67.7726 34.2275C68.3633 34.8182 69.1645 35.1501 70 35.1501C70.8354 35.1501 71.6366 34.8182 72.2274 34.2275C72.8181 33.6367 73.15 32.8355 73.15 32.0001V26.7501C73.15 25.9147 72.8181 25.1135 72.2274 24.5227C71.6366 23.932 70.8354 23.6001 70 23.6001Z" fill="#1D1F1B" style="fill:#1D1F1B;fill:color(display-p3 0.1148 0.1200 0.1044);fill-opacity:1;"/>
</g>
</g>
</g>
</svg>
