<svg width="24" height="24" viewBox="0 0 24 24" fill="none" xmlns="http://www.w3.org/2000/svg">
<g transform="translate(-20, -20)">
<g id="Type=map, Filled?=no">
<g id="map">
<path id="Vector" fill-rule="evenodd" clip-rule="evenodd" d="M41.7712 22.143C41.8428 22.2017 41.9005 22.2755 41.94 22.3591C41.9796 22.4428 42.0001 22.5342 42 22.6268V40.1273C41.9999 40.2717 41.9498 40.4117 41.8582 40.5233C41.7666 40.635 41.6391 40.7115 41.4975 40.7398L35.2475 41.9898C35.1666 42.006 35.0834 42.006 35.0025 41.9898L28.875 40.7648L22.7475 41.9898C22.6569 42.0079 22.5633 42.0057 22.4737 41.9834C22.384 41.961 22.3004 41.919 22.2289 41.8604C22.1574 41.8018 22.0998 41.7281 22.0602 41.6446C22.0206 41.561 22.0001 41.4697 22 41.3773V23.8768C22.0001 23.7324 22.0502 23.5924 22.1418 23.4807C22.2334 23.3691 22.3609 23.2926 22.5025 23.2643L28.7525 22.0142C28.8334 21.9981 28.9166 21.9981 28.9975 22.0142L35.125 23.2393L41.2525 22.0142C41.3431 21.996 41.4366 21.9981 41.5263 22.0204C41.616 22.0426 41.6997 22.0845 41.7712 22.143ZM34.5 24.3893L29.5 23.3893V39.6148L34.5 40.6148V24.3893ZM35.75 40.6148L40.75 39.6148V23.3893L35.75 24.3893V40.6148ZM28.25 39.6148V23.3893L23.25 24.3893V40.6148L28.25 39.6148Z" fill="#494C44" style="fill:#494C44;fill:color(display-p3 0.2876 0.2980 0.2667);fill-opacity:1;"/>
</g>
</g>
</g>
</svg>
